<svg data-v-0dd9719b="" version="1.0" xmlns="http://www.w3.org/2000/svg" xmlns:xlink="http://www.w3.org/1999/xlink" width="100%" height="100%" viewBox="0 0 340.000000 250.000000" preserveAspectRatio="xMidYMid meet" color-interpolation-filters="sRGB" style="margin: auto;"> <rect data-v-0dd9719b="" x="0" y="0" width="100%" height="100%" fill="#fff" fill-opacity="1" class="background"></rect> <rect data-v-0dd9719b="" x="0" y="0" width="100%" height="100%" fill="url(#watermark)" fill-opacity="1" class="watermarklayer"></rect> <g data-v-0dd9719b="" fill="#2ab69d" class="icon-text-wrapper icon-svg-group iconsvg" transform="translate(82.58499908447266,74.8949966430664)"><g class="iconsvg-imagesvg" transform="translate(57.415000915527344,0)"><g><rect fill="#2ab69d" fill-opacity="0" stroke-width="2" x="0" y="0" width="60" height="60" class="image-rect"></rect> <svg x="0" y="0" width="60" height="60" filtersec="colorsb5022664665" class="image-svg-svg primary" style="overflow: visible;"><svg xmlns="http://www.w3.org/2000/svg" viewBox="0 0 117.7199935913086 117.7199935913086"><g><g><rect width="117.72" height="117.72" rx="13.33" ry="13.33" fill="#2ab69d"></rect><path d="M102.1 51.93a11.65 11.65 0 0 0-13.73-2L67.81 29.35a11.63 11.63 0 1 0-4.75 4.75l20.56 20.56a11.66 11.66 0 0 0-1.33 6.49l-51-12.51a11.63 11.63 0 1 0-2 19.17l20.62 20.56a11.64 11.64 0 1 0 4.75-4.75L34.1 63.06a11.66 11.66 0 0 0 1.33-6.49l51 12.51a11.64 11.64 0 0 0 15.7-17.15zm-48-24.6a4.92 4.92 0 1 1 7 0 4.93 4.93 0 0 1-7.02 0zM20.37 61a4.92 4.92 0 1 1 7 0 4.92 4.92 0 0 1-7 0zm43.27 29.39A4.93 4.93 0 1 1 60.16 89a4.93 4.93 0 0 1 3.48 1.39zm33.71-26.75a4.92 4.92 0 1 1 0-7 4.93 4.93 0 0 1 0 7z" fill="#fff"></path></g></g></svg></svg> <!----></g></g> <g transform="translate(0,67)"><g data-gra="path-name" fill-rule="" class="tp-name iconsvg-namesvg"><g transform="scale(1)"><g><path d="M28.21-32.84Q29.51-32.84 30.27-32.03 31.03-31.22 31.03-29.88L31.03-29.88 31.03-2.73Q31.03-1.39 30.25-0.55 29.46 0.28 28.21 0.28L28.21 0.28Q26.73 0.28 25.95-0.79L25.95-0.79 9.06-22.75 9.06-2.73Q9.06-1.39 8.32-0.55 7.58 0.28 6.29 0.28L6.29 0.28Q4.99 0.28 4.25-0.55 3.51-1.39 3.51-2.73L3.51-2.73 3.51-29.88Q3.51-31.22 4.3-32.03 5.09-32.84 6.38-32.84L6.38-32.84Q7.82-32.84 8.6-31.77L8.6-31.77 25.44-9.9 25.44-29.88Q25.44-31.22 26.2-32.03 26.96-32.84 28.21-32.84L28.21-32.84ZM55.45-6.2Q56.24-6.2 56.72-5.6 57.21-4.99 57.21-3.98L57.21-3.98Q57.21-2.54 55.5-1.57L55.5-1.57Q53.93-0.69 51.94-0.16 49.95 0.37 48.14 0.37L48.14 0.37Q42.69 0.37 39.5-2.77 36.31-5.92 36.31-11.38L36.31-11.38Q36.31-14.85 37.69-17.53 39.08-20.21 41.6-21.69 44.12-23.17 47.31-23.17L47.31-23.17Q50.36-23.17 52.63-21.83 54.9-20.49 56.15-18.04 57.39-15.59 57.39-12.26L57.39-12.26Q57.39-10.27 55.64-10.27L55.64-10.27 41.99-10.27Q42.27-7.08 43.8-5.57 45.32-4.07 48.24-4.07L48.24-4.07Q49.72-4.07 50.85-4.44 51.98-4.81 53.42-5.46L53.42-5.46Q54.8-6.2 55.45-6.2L55.45-6.2ZM47.45-19.1Q45.09-19.1 43.68-17.62 42.27-16.14 41.99-13.37L41.99-13.37 52.45-13.37Q52.35-16.19 51.06-17.64 49.76-19.1 47.45-19.1L47.45-19.1ZM73.54-4.02Q75.85-3.88 75.85-1.94L75.85-1.94Q75.85-0.83 74.95-0.25 74.04 0.32 72.38 0.23L72.38 0.23 71.13 0.14Q63.36-0.42 63.36-8.19L63.36-8.19 63.36-18.27 61.05-18.27Q59.8-18.27 59.13-18.82 58.46-19.38 58.46-20.44L58.46-20.44Q58.46-21.51 59.13-22.06 59.8-22.62 61.05-22.62L61.05-22.62 63.36-22.62 63.36-26.87Q63.36-28.12 64.15-28.86 64.93-29.6 66.27-29.6L66.27-29.6Q67.57-29.6 68.36-28.86 69.14-28.12 69.14-26.87L69.14-26.87 69.14-22.62 73.07-22.62Q74.32-22.62 74.99-22.06 75.66-21.51 75.66-20.44L75.66-20.44Q75.66-19.38 74.99-18.82 74.32-18.27 73.07-18.27L73.07-18.27 69.14-18.27 69.14-7.77Q69.14-4.35 72.29-4.12L72.29-4.12 73.54-4.02ZM87.04 0.37Q82 0.37 78.9-1.62L78.9-1.62Q77.42-2.5 77.42-4.12L77.42-4.12Q77.42-5.04 77.93-5.62 78.44-6.2 79.18-6.2L79.18-6.2Q79.96-6.2 81.35-5.46L81.35-5.46Q82.83-4.76 84.06-4.39 85.28-4.02 87.18-4.02L87.18-4.02Q89.12-4.02 90.21-4.67 91.29-5.32 91.29-6.47L91.29-6.47Q91.29-7.26 90.86-7.72 90.42-8.19 89.28-8.58 88.15-8.97 85.84-9.48L85.84-9.48Q81.72-10.31 79.94-11.84 78.16-13.37 78.16-16.05L78.16-16.05Q78.16-18.08 79.36-19.73 80.57-21.37 82.67-22.27 84.77-23.17 87.46-23.17L87.46-23.17Q89.4-23.17 91.2-22.68 93.01-22.2 94.44-21.27L94.44-21.27Q95.92-20.35 95.92-18.82L95.92-18.82Q95.92-17.9 95.41-17.27 94.9-16.65 94.16-16.65L94.16-16.65Q93.65-16.65 93.17-16.86 92.68-17.07 91.94-17.48L91.94-17.48Q90.6-18.18 89.63-18.52 88.66-18.87 87.23-18.87L87.23-18.87Q85.51-18.87 84.52-18.18 83.53-17.48 83.53-16.28L83.53-16.28Q83.53-15.12 84.54-14.52 85.56-13.92 88.47-13.32L88.47-13.32Q91.57-12.67 93.33-11.84 95.09-11.01 95.85-9.76 96.61-8.51 96.61-6.57L96.61-6.57Q96.61-3.42 94-1.53 91.39 0.37 87.04 0.37L87.04 0.37ZM112.8-4.02Q115.11-3.88 115.11-1.94L115.11-1.94Q115.11-0.83 114.21-0.25 113.31 0.32 111.64 0.23L111.64 0.23 110.4 0.14Q102.63-0.42 102.63-8.19L102.63-8.19 102.63-18.27 100.31-18.27Q99.06-18.27 98.39-18.82 97.72-19.38 97.72-20.44L97.72-20.44Q97.72-21.51 98.39-22.06 99.06-22.62 100.31-22.62L100.31-22.62 102.63-22.62 102.63-26.87Q102.63-28.12 103.41-28.86 104.2-29.6 105.54-29.6L105.54-29.6Q106.83-29.6 107.62-28.86 108.41-28.12 108.41-26.87L108.41-26.87 108.41-22.62 112.34-22.62Q113.59-22.62 114.26-22.06 114.93-21.51 114.93-20.44L114.93-20.44Q114.93-19.38 114.26-18.82 113.59-18.27 112.34-18.27L112.34-18.27 108.41-18.27 108.41-7.77Q108.41-4.35 111.55-4.12L111.55-4.12 112.8-4.02ZM127.92-23.17Q132.64-23.17 134.93-20.84 137.22-18.5 137.22-13.74L137.22-13.74 137.22-2.45Q137.22-1.2 136.48-0.49 135.74 0.23 134.45 0.23L134.45 0.23Q133.24 0.23 132.48-0.51 131.72-1.25 131.72-2.45L131.72-2.45 131.72-3.47Q130.93-1.66 129.24-0.65 127.55 0.37 125.33 0.37L125.33 0.37Q123.07 0.37 121.22-0.55 119.37-1.48 118.3-3.1 117.24-4.72 117.24-6.71L117.24-6.71Q117.24-9.2 118.51-10.64 119.78-12.07 122.65-12.72 125.52-13.37 130.56-13.37L130.56-13.37 131.72-13.37 131.72-14.43Q131.72-16.7 130.75-17.74 129.77-18.78 127.6-18.78L127.6-18.78Q126.26-18.78 124.87-18.38 123.48-17.99 121.59-17.25L121.59-17.25Q120.39-16.65 119.83-16.65L119.83-16.65Q119-16.65 118.47-17.25 117.93-17.85 117.93-18.82L117.93-18.82Q117.93-19.61 118.33-20.19 118.72-20.77 119.65-21.27L119.65-21.27Q121.26-22.15 123.51-22.66 125.75-23.17 127.92-23.17L127.92-23.17ZM126.49-3.79Q128.8-3.79 130.26-5.34 131.72-6.89 131.72-9.34L131.72-9.34 131.72-10.31 130.88-10.31Q127.79-10.31 126.07-10.04 124.36-9.76 123.62-9.06 122.88-8.37 122.88-7.17L122.88-7.17Q122.88-5.69 123.92-4.74 124.96-3.79 126.49-3.79L126.49-3.79ZM155.72-23.08Q156.92-23.17 157.62-22.57 158.31-21.97 158.31-20.77L158.31-20.77Q158.31-19.52 157.71-18.92 157.11-18.31 155.53-18.13L155.53-18.13 154.15-17.99Q151.42-17.71 150.15-16.14 148.87-14.57 148.87-12.21L148.87-12.21 148.87-2.5Q148.87-1.16 148.04-0.44 147.21 0.28 145.96 0.28L145.96 0.28Q144.71 0.28 143.9-0.44 143.09-1.16 143.09-2.5L143.09-2.5 143.09-20.4Q143.09-21.69 143.9-22.38 144.71-23.08 145.91-23.08L145.91-23.08Q147.12-23.08 147.86-22.41 148.6-21.74 148.6-20.49L148.6-20.49 148.6-18.64Q149.48-20.67 151.21-21.78 152.94-22.89 155.07-23.03L155.07-23.03 155.72-23.08ZM168.76 0.37Q163.72 0.37 160.62-1.62L160.62-1.62Q159.14-2.5 159.14-4.12L159.14-4.12Q159.14-5.04 159.65-5.62 160.16-6.2 160.9-6.2L160.9-6.2Q161.69-6.2 163.07-5.46L163.07-5.46Q164.55-4.76 165.78-4.39 167-4.02 168.9-4.02L168.9-4.02Q170.84-4.02 171.93-4.67 173.02-5.32 173.02-6.47L173.02-6.47Q173.02-7.26 172.58-7.72 172.14-8.19 171-8.58 169.87-8.97 167.56-9.48L167.56-9.48Q163.44-10.31 161.66-11.84 159.88-13.37 159.88-16.05L159.88-16.05Q159.88-18.08 161.08-19.73 162.29-21.37 164.39-22.27 166.5-23.17 169.18-23.17L169.18-23.17Q171.12-23.17 172.92-22.68 174.73-22.2 176.16-21.27L176.16-21.27Q177.64-20.35 177.64-18.82L177.64-18.82Q177.64-17.9 177.13-17.27 176.62-16.65 175.88-16.65L175.88-16.65Q175.38-16.65 174.89-16.86 174.4-17.07 173.66-17.48L173.66-17.48Q172.32-18.18 171.35-18.52 170.38-18.87 168.95-18.87L168.95-18.87Q167.24-18.87 166.24-18.18 165.25-17.48 165.25-16.28L165.25-16.28Q165.25-15.12 166.26-14.52 167.28-13.92 170.2-13.32L170.2-13.32Q173.29-12.67 175.05-11.84 176.81-11.01 177.57-9.76 178.34-8.51 178.34-6.57L178.34-6.57Q178.34-3.42 175.72-1.53 173.11 0.37 168.76 0.37L168.76 0.37Z" transform="translate(-3.509999990463257, 32.84000015258789)"></path></g> <!----> <!----> <!----> <!----> <!----> <!----> <!----></g></g> <!----></g></g><defs v-gra="od"></defs></svg>